<?xml version="1.0" encoding="utf-8"?>
<!-- Generator: Adobe Illustrator 16.0.0, SVG Export Plug-In . SVG Version: 6.00 Build 0)  -->
<!DOCTYPE svg PUBLIC "-//W3C//DTD SVG 1.1//EN" "http://www.w3.org/Graphics/SVG/1.1/DTD/svg11.dtd">
<svg version="1.1" id="Layer_1" xmlns="http://www.w3.org/2000/svg" xmlns:xlink="http://www.w3.org/1999/xlink" x="0px" y="0px"
	 width="100px" height="100px" viewBox="0 0 100 100" enable-background="new 0 0 100 100" xml:space="preserve">
<g id="Captions">
</g>
<g id="Your_Icon" opacity="0.3">
	<path fill="#FFFFFF" d="M36.422,19.675v-3.711c0-1.942,1.574-3.516,3.517-3.516h20.122c1.941,0,3.52,1.574,3.52,3.516v3.711h6.445
		v-3.711C70.025,10.47,65.555,6,60.061,6H39.939c-5.494,0-9.964,4.47-9.964,9.963v3.711L36.422,19.675L36.422,19.675z"/>
	<path fill="#FFFFFF" d="M59.384,57.166c0,0.747-0.606,1.354-1.354,1.354H41.972c-0.748,0-1.354-0.604-1.354-1.354v-7.85
		c0-0.747,0.606-1.353,1.354-1.353h16.057c0.748,0,1.354,0.605,1.354,1.353L59.384,57.166L59.384,57.166z"/>
	<path fill="#FFFFFF" d="M58.029,61.881H41.972c-2.6,0-4.715-2.115-4.715-4.715v-2.449C25.042,53.895,13.148,51.9,1.685,48.851
		v32.917c0,4.643,3.762,8.402,8.402,8.402h79.827c4.641,0,8.4-3.763,8.4-8.402V48.853c-11.461,3.049-23.354,5.043-35.57,5.865v2.448
		C62.745,59.766,60.63,61.881,58.029,61.881z"/>
	<path fill="#FFFFFF" d="M41.972,44.603h16.057c2.601,0,4.716,2.114,4.716,4.714v1.567c12.215-0.822,24.108-2.817,35.569-5.865
		v-13.58c0-4.641-3.763-8.403-8.401-8.403H10.087c-4.641,0-8.402,3.762-8.402,8.403v13.578c11.463,3.05,23.356,5.044,35.572,5.866
		v-1.566C37.256,46.717,39.373,44.603,41.972,44.603z"/>
</g>
</svg>
