<?xml version="1.0" encoding="utf-8"?>
<!-- Generator: Adobe Illustrator 16.0.0, SVG Export Plug-In . SVG Version: 6.00 Build 0)  -->
<!DOCTYPE svg PUBLIC "-//W3C//DTD SVG 1.1//EN" "http://www.w3.org/Graphics/SVG/1.1/DTD/svg11.dtd">
<svg version="1.1" id="Layer_1" xmlns="http://www.w3.org/2000/svg" xmlns:xlink="http://www.w3.org/1999/xlink" x="0px" y="0px"
	 width="100px" height="100px" viewBox="0 0 100 100" enable-background="new 0 0 100 100" xml:space="preserve">
<g opacity="0.3">
	<g>
		<path fill="#FFFFFF" d="M92.818,23.216V72.1c0,0-13.907-3.91-24.24-1.923c-9.255,1.779-16.066,6.8-17.215,7.688v0.146
			c0,0-0.034-0.027-0.096-0.074c-0.062,0.047-0.097,0.074-0.097,0.074v-0.146c-1.148-0.889-7.959-5.907-17.211-7.688
			C23.626,68.189,8.357,72.1,8.357,72.1V23.071c-0.893,0.134-1.84,0.277-2.858,0.429v52.662c0,0,16.64-4.282,27.959-2.104
			c11.131,2.141,17.856,8.58,17.856,8.58s6.725-6.439,17.854-8.58c11.321-2.181,27.277,2.104,27.277,2.104V23.727
			C96.448,23.727,95.059,23.492,92.818,23.216z M33.121,65.229c9.051,1.739,16.046,6.979,16.046,6.979V24.113
			c0,0-7.032-5.245-16.104-6.989c-9.183-1.766-21.179,1.723-21.179,1.723v48.094C11.884,66.941,23.918,63.459,33.121,65.229z
			 M89.284,67.117V19.023c0,0-10.996-3.49-20.175-1.723c-9.072,1.743-16.336,6.987-16.336,6.987v48.095
			c0,0,7.224-5.237,16.275-6.979C78.252,63.636,89.284,67.117,89.284,67.117z"/>
	</g>
</g>
</svg>
