<?xml version="1.0" encoding="utf-8"?>
<!-- Generator: Adobe Illustrator 16.0.0, SVG Export Plug-In . SVG Version: 6.00 Build 0)  -->
<!DOCTYPE svg PUBLIC "-//W3C//DTD SVG 1.1//EN" "http://www.w3.org/Graphics/SVG/1.1/DTD/svg11.dtd">
<svg version="1.1" id="Layer_1" xmlns="http://www.w3.org/2000/svg" xmlns:xlink="http://www.w3.org/1999/xlink" x="0px" y="0px"
	 width="144px" height="144px" viewBox="0 0 144 144" enable-background="new 0 0 144 144" xml:space="preserve">
<g id="Layer_1_1_" opacity="0.6">
	<g>
		
			<rect x="35.743" y="39.79" transform="matrix(-0.5987 -0.8009 0.8009 -0.5987 26.1691 99.4173)" fill="#FFFFFF" width="4.489" height="6.727"/>
		
			<rect x="46.517" y="31.717" transform="matrix(-0.5995 -0.8004 0.8004 -0.5995 49.9159 95.1406)" fill="#FFFFFF" width="4.488" height="6.729"/>
		<polygon fill="#FFFFFF" points="100.643,33.72 94.965,32.638 95.719,28.218 101.394,29.297 		"/>
		
			<rect x="82.033" y="26.497" transform="matrix(-0.9857 -0.1682 0.1682 -0.9857 164.7407 71.4375)" fill="#FFFFFF" width="6.728" height="4.487"/>
		
			<rect x="68.756" y="24.226" transform="matrix(-0.9858 -0.1681 0.1681 -0.9858 138.7657 64.6827)" fill="#FFFFFF" width="6.729" height="4.486"/>
		
			<rect x="52.789" y="96.375" transform="matrix(-0.4896 -0.8719 0.8719 -0.4896 -2.3441 195.8632)" fill="#FFFFFF" width="6.727" height="4.486"/>
		
			<rect x="46.201" y="84.628" transform="matrix(-0.4895 -0.872 0.872 -0.4895 -1.926 172.6156)" fill="#FFFFFF" width="6.729" height="4.487"/>
		
			<rect x="79.127" y="104.55" transform="matrix(-0.4698 -0.8828 0.8828 -0.4698 24.3335 230.4454)" fill="#FFFFFF" width="4.49" height="6.729"/>
		
			<rect x="91.017" y="98.243" transform="matrix(-0.4693 -0.8831 0.8831 -0.4693 47.3014 231.6435)" fill="#FFFFFF" width="4.487" height="6.728"/>
		
			<rect x="102.897" y="91.919" transform="matrix(-0.4695 -0.8829 0.8829 -0.4695 70.3793 232.8523)" fill="#FFFFFF" width="4.484" height="6.73"/>
		<path fill="#FFFFFF" d="M107.244,40.17L107.244,40.17l-0.819-0.009c-2.919,0-6.991-2.66-6.991-6.991
			c0-4.814,2.807-8.047,6.991-8.047c4.97,0,8.045,3.631,8.045,6.993c0,3.104-0.896,5.366-2.663,6.722
			C110.25,40.033,108.455,40.17,107.244,40.17z M106.425,29.606c-2.182,0-2.506,2.23-2.506,3.561c0,1.729,1.993,2.507,2.506,2.507
			l0.819,0.009l0,0c0.607,0,1.358-0.048,1.834-0.409c0.581-0.446,0.905-1.571,0.905-3.162
			C109.984,31.269,108.91,29.606,106.425,29.606z"/>
		<path fill="#FFFFFF" d="M119.774,92.913L119.774,92.913l-0.819-0.012c-2.918,0-6.991-2.657-6.991-6.988
			c0-4.814,2.811-8.047,6.991-8.047c4.971,0,8.045,3.626,8.045,6.987c0,3.104-0.896,5.365-2.663,6.729
			C122.775,92.777,120.985,92.913,119.774,92.913z M118.955,82.352c-2.178,0-2.507,2.228-2.507,3.562
			c0,1.723,1.989,2.503,2.507,2.503l0.819,0.016l0,0c0.607,0,1.36-0.049,1.832-0.412c0.586-0.447,0.907-1.574,0.907-3.164
			C122.514,84.013,121.438,82.352,118.955,82.352z"/>
		<path fill="#FFFFFF" d="M101.971,126.702L101.971,126.702l-0.823-0.009c-2.92,0-6.99-2.661-6.99-6.99
			c0-4.813,2.806-8.049,6.99-8.049c4.973,0,8.046,3.628,8.046,6.991c0,3.104-0.896,5.368-2.661,6.724
			C104.971,126.561,103.181,126.702,101.971,126.702z M101.147,116.139c-2.179,0-2.506,2.229-2.506,3.562
			c0,1.728,1.992,2.504,2.506,2.504l0.823,0.016l0,0c0.604,0,1.357-0.052,1.826-0.411c0.586-0.446,0.907-1.576,0.907-3.162
			C104.705,117.798,103.633,116.139,101.147,116.139z"/>
		<path fill="#FFFFFF" d="M66.548,123.354L66.548,123.354l-0.821-0.012c-2.921,0-6.987-2.661-6.987-6.992
			c0-4.812,2.809-8.045,6.987-8.045c4.972,0,8.048,3.629,8.048,6.99c0,3.105-0.895,5.368-2.663,6.724
			C69.55,123.215,67.76,123.354,66.548,123.354z M65.727,112.792c-2.068,0-2.503,1.936-2.503,3.559c0,1.728,1.991,2.508,2.503,2.508
			l0.821,0.01l0,0c0.606,0,1.358-0.049,1.831-0.406c0.585-0.451,0.912-1.575,0.912-3.166
			C69.291,114.45,68.215,112.792,65.727,112.792z"/>
		<path fill="#FFFFFF" d="M38.737,114.828L38.737,114.828l-0.822-0.009c-2.92,0-6.989-2.657-6.989-6.991
			c0-4.814,2.809-8.049,6.989-8.049c4.97,0,8.044,3.631,8.044,6.991c0,3.105-0.895,5.368-2.662,6.728
			C41.737,114.693,39.948,114.828,38.737,114.828z M37.916,104.268c-2.178,0-2.503,2.231-2.503,3.565
			c0,1.725,1.991,2.504,2.503,2.504l0.822,0.011l0,0c0.608,0,1.36-0.049,1.83-0.406c0.584-0.452,0.908-1.576,0.908-3.164
			C41.476,105.927,40.401,104.268,37.916,104.268z"/>
		<path fill="#FFFFFF" d="M45,86.884L45,86.884l-0.822-0.009c-2.917,0-6.99-2.663-6.99-6.992c0-4.813,2.81-8.047,6.99-8.047
			c4.971,0,8.047,3.628,8.047,6.992c0,3.104-0.896,5.366-2.663,6.723C48.003,86.746,46.212,86.884,45,86.884z M44.178,76.324
			c-2.178,0-2.505,2.229-2.505,3.559c0,1.729,1.993,2.507,2.505,2.507l0.821,0.013l0,0c0.605,0,1.358-0.05,1.832-0.41
			c0.586-0.448,0.905-1.572,0.905-3.161C47.737,77.981,46.667,76.324,44.178,76.324z"/>
		<path fill="#FFFFFF" d="M29.725,52.14l1.523-1.143l-2.688-3.593l-1.641,1.227C28.529,49.436,29.506,50.824,29.725,52.14z"/>
		<path fill="#FFFFFF" d="M24.811,60.762L24.811,60.762l-0.819-0.011C21.07,60.75,17,58.093,17,53.759
			c0-4.812,2.807-8.048,6.989-8.048c4.971,0,8.044,3.632,8.044,6.992c0,3.107-0.895,5.368-2.662,6.724
			C27.811,60.624,26.019,60.762,24.811,60.762z M23.989,50.197c-2.18,0-2.505,2.229-2.505,3.561c0,1.728,1.992,2.507,2.505,2.507
			l0.819,0.012l0,0c0.605,0,1.363-0.049,1.833-0.409c0.584-0.45,0.906-1.573,0.906-3.162C27.549,51.856,26.474,50.197,23.989,50.197
			z"/>
		<path fill="#FFFFFF" d="M59.667,25.343c0-0.448,0.038-0.883,0.097-1.304l-4.27,3.2l2.686,3.592l2.945-2.203
			C60.293,27.842,59.667,26.754,59.667,25.343z"/>
		<path fill="#FFFFFF" d="M65.237,32.348L65.237,32.348l-0.824-0.012c-2.92,0-6.989-2.659-6.989-6.99
			c0-4.815,2.805-8.048,6.989-8.048c4.974,0,8.048,3.628,8.048,6.991c0,3.106-0.896,5.366-2.663,6.72
			C68.238,32.21,66.446,32.348,65.237,32.348z M64.413,21.785c-2.177,0-2.503,2.23-2.503,3.56c0,1.726,1.992,2.504,2.503,2.504
			l0.824,0.013l0,0c0.606,0,1.357-0.047,1.831-0.41c0.586-0.449,0.907-1.574,0.907-3.162C67.973,23.443,66.898,21.785,64.413,21.785
			z"/>
		<path fill="#FFFFFF" d="M37.916,102.027c1.489,0,2.706,0.438,3.647,1.088l3.697-18.475c-0.417,0.009-0.794-0.009-1.081-0.009
			c-0.858,0-2.178-0.468-3.212-1.398l-3.778,18.869C37.426,102.068,37.654,102.027,37.916,102.027z"/>
		<path fill="#FFFFFF" d="M65.446,110.575l-2.388-4.252l-3.912,2.202l2.532,4.512C62.382,111.61,63.631,110.673,65.446,110.575z"/>
		<path fill="#FFFFFF" d="M61.086,117.29c-0.062-0.301-0.106-0.605-0.106-0.938c0-1.342,0.289-2.564,0.838-3.552l-18.11-6.126
			c0,0.034,0.011,0.07,0.011,0.103c0,2.07-0.456,3.397-1.119,4.261L61.086,117.29z"/>
		<path fill="#FFFFFF" d="M71.531,115.296c0,0.153-0.015,0.278-0.018,0.425l2.013-1.076l-2.109-3.959l-1.939,1.033
			C70.802,112.679,71.531,114.073,71.531,115.296z"/>
		<path fill="#FFFFFF" d="M114.58,87.674l-12.785,26.283c1.793,0.157,3.162,0.942,4.029,1.962l12.347-25.363
			C116.911,90.254,115.295,89.293,114.58,87.674z"/>
		<path fill="#FFFFFF" d="M65.977,28.502l-4.403,0.866l3.364,17.172c1.848,0.09,3.437,0.485,4.786,1.082L65.977,28.502z"/>
		<path fill="#FFFFFF" d="M48.42,75.627c1.018,0.933,1.564,2.133,1.564,3.2c0,0.372-0.018,0.713-0.047,1.037l9.185-4.185
			c-0.914-1.139-1.828-2.388-2.692-3.705L48.42,75.627z"/>
		<path fill="#FFFFFF" d="M51.843,58.18L29.691,54.2c-0.381,2.865-1.858,3.846-3.292,4.165l13.633,18.507
			c0.646-1.479,1.846-2.489,3.607-2.668L32.656,59.29l19.631,3.529c-0.305-1.311-0.477-2.644-0.477-3.977
			C51.81,58.615,51.831,58.403,51.843,58.18z"/>
		<path fill="#FFFFFF" d="M64.702,110.652c0.324-0.06,0.661-0.106,1.031-0.106c1.354,0,2.492,0.356,3.396,0.914l2.871-24.849
			c-1.021-0.128-2.206-0.67-4.253-2.284L64.702,110.652z"/>
		<path fill="#FFFFFF" d="M97.183,116.244c0.736-1.386,2.004-2.292,3.832-2.336L80.393,81.937c-1.097,1.026-2.294,2.049-3.481,2.88
			L97.183,116.244z"/>
		<polygon fill="#FFFFFF" points="72.917,78.625 72.97,78.18 72.732,78.334 		"/>
		<path fill="#FFFFFF" d="M111.025,36.629c-1.241,1.502-3.143,1.47-4.269,1.446l9.528,40.834L90.999,68.014
			c-0.65,1.372-1.399,2.689-2.201,3.937l25.9,11.157c0.678-1.78,2.068-2.999,4.255-2.999c0.864,0,1.631,0.153,2.313,0.401
			L111.025,36.629z"/>
		<path fill="#FFFFFF" d="M91.291,52.099l13.785-14.304c-1.262-0.461-2.678-1.512-3.192-3.15L88.186,48.855
			C89.408,49.74,90.46,50.833,91.291,52.099z"/>
		<path fill="#FFFFFF" d="M80.975,50.433c-7.013,0-8.417,6.166-8.417,6.166s-1.121-6.166-8.412-6.166
			c-4.645,0-8.412,3.767-8.412,8.412c0,10.983,15.328,23.883,16.822,23.883c2.058,0,16.827-13.042,16.827-23.883
			C89.385,54.194,85.618,50.433,80.975,50.433z"/>
	</g>
</g>
</svg>
