<?xml version="1.0" encoding="utf-8"?>
<!-- Generator: Adobe Illustrator 16.0.0, SVG Export Plug-In . SVG Version: 6.00 Build 0)  -->
<!DOCTYPE svg PUBLIC "-//W3C//DTD SVG 1.1//EN" "http://www.w3.org/Graphics/SVG/1.1/DTD/svg11.dtd">
<svg version="1.1" id="Layer_1" xmlns="http://www.w3.org/2000/svg" xmlns:xlink="http://www.w3.org/1999/xlink" x="0px" y="0px"
	 width="100px" height="100px" viewBox="0 0 100 100" enable-background="new 0 0 100 100" xml:space="preserve">
<g opacity="0.6">
	<rect x="52.084" y="14.583" fill="#FFFFFF" width="29.166" height="20.833"/>
	<path fill="#FFFFFF" d="M90.238,9.763c-13.016-13.017-34.127-13.017-47.14,0c-0.21,0.21-0.387,0.439-0.59,0.654
		c-6.098,6.425-9.174,14.662-9.174,22.917c-6.562,0-13.11,1.945-18.75,5.792c-1.696,1.158-3.316,2.468-4.821,3.971
		c-13.018,13.02-13.018,34.121,0,47.141c13.016,13.014,34.126,13.02,47.141,0c0.875-0.875,1.682-1.794,2.438-2.736
		c4.875-6.072,7.322-13.453,7.324-20.834c2.094,0,4.187-0.201,6.25-0.594c6.347-1.205,12.409-4.257,17.319-9.169
		C103.254,43.884,103.254,22.778,90.238,9.763z M24.064,47.917c3.504,0,6.356,2.849,6.356,6.361c0,3.511-2.854,6.356-6.356,6.356
		c-3.522,0-6.354-2.846-6.354-6.356C17.709,50.765,20.542,47.917,24.064,47.917z M62.195,65.32l-9.383,9.383
		c0.194,0.406,0.312,0.857,0.312,1.338c0,1.443-0.98,2.646-2.311,3.004l-1.855,0.121h-6.25c0,0-0.676,0-1.042,0
		c-1.726,0-3.841-2.547-3.841-2.547l-3.451-3.449V87.5H11.459V70.833c0-4.168,4.203-8.334,8.333-8.334c0,0,9.184,0,11.458,0
		c1.392,0,2.897,0.317,3.968,1.424c1.766,1.828,7.491,8.992,7.491,8.992H50c0.483,0,0.932,0.119,1.339,0.314l9.384-9.384
		c0.406-0.407,1.065-0.407,1.473,0C62.602,64.253,62.602,64.914,62.195,65.32z M85.417,39.583c0,1.151-0.931,2.083-2.083,2.083
		h-12.5v4.167c0,2.303,3.945,4.167,6.25,4.167h4.166c1.152,0,2.084,0.932,2.084,2.083c0,1.15-0.932,2.082-2.084,2.082H66.667H52.084
		c-1.152,0-2.084-0.932-2.084-2.082C50,50.932,50.932,50,52.084,50h4.166c2.305,0,6.25-1.864,6.25-4.167v-4.167H50
		c-1.151,0-2.083-0.932-2.083-2.083V12.5c0-1.151,0.932-2.083,2.083-2.083h33.334c1.152,0,2.083,0.932,2.083,2.083V39.583z"/>
</g>
</svg>
