<?xml version="1.0" encoding="utf-8"?>
<!-- Generator: Adobe Illustrator 16.0.0, SVG Export Plug-In . SVG Version: 6.00 Build 0)  -->
<!DOCTYPE svg PUBLIC "-//W3C//DTD SVG 1.1//EN" "http://www.w3.org/Graphics/SVG/1.1/DTD/svg11.dtd">
<svg version="1.1" id="Layer_1" xmlns="http://www.w3.org/2000/svg" xmlns:xlink="http://www.w3.org/1999/xlink" x="0px" y="0px"
	 width="144px" height="144px" viewBox="0 0 144 144" enable-background="new 0 0 144 144" xml:space="preserve">
<g id="Layer_1_1_" opacity="0.3">
	<g>
		<g>
			<g>
				<path fill="#FFFFFF" d="M16.728,32h96.194c1.361,0,2.454,1.099,2.454,2.453v30.43H88.498c-2.169,0-3.925,1.76-3.925,3.925
					v29.945H74.189l4.271,11.097c0,0.924-0.748,1.664-1.667,1.664H52.858c-0.919,0-1.667-0.74-1.667-1.664l4.272-11.097H16.728
					c-1.356,0-2.45-1.104-2.45-2.453V34.453C14.275,33.099,15.372,32,16.728,32z"/>
			</g>
			<g>
				<path fill="#FFFFFF" d="M114.508,109.546c0,1.354,1.1,2.454,2.452,2.454h10.308c1.355,0,2.455-1.1,2.455-2.454V86.973
					c0-1.353-1.1-2.455-2.455-2.455H116.96c-1.353,0-2.452,1.104-2.452,2.455V109.546z"/>
				<g>
					<path fill="#FFFFFF" d="M112.633,110.896c-0.139-0.438-0.209-0.892-0.209-1.35V86.973c0-2.505,2.036-4.537,4.536-4.537h4.296
						V68.808c0-1.014-0.826-1.839-1.842-1.839H88.498c-1.012,0-1.841,0.823-1.841,1.839v40.247c0,1.016,0.829,1.844,1.841,1.844
						h24.135V110.896z"/>
				</g>
			</g>
		</g>
	</g>
</g>
</svg>
